<svg id="user" xmlns="http://www.w3.org/2000/svg" width="73.332" height="73.333" viewBox="0 0 73.332 73.333">
  <path id="Path_369" data-name="Path 369" d="M118.576,0,95.6,36.667l22.974,36.667a36.667,36.667,0,1,0,0-73.333Z" transform="translate(-81.91)" fill="#e6f1fb"/>
  <path id="Path_370" data-name="Path 370" d="M0,36.667A36.667,36.667,0,0,0,36.667,73.333V0A36.667,36.667,0,0,0,0,36.667Z" fill="#e6f1fb"/>
  <path id="Path_371" data-name="Path 371" d="M198.224,60l-8.012,12.788,8.012,12.788a12.788,12.788,0,1,0,0-25.575Z" transform="translate(-161.326 -47.406)" fill="#2cafe0"/>
  <path id="Path_372" data-name="Path 372" d="M151,72.788a12.788,12.788,0,0,0,12.788,12.788V60A12.788,12.788,0,0,0,151,72.788Z" transform="translate(-126.891 -47.406)" fill="#58d2fd"/>
  <path id="Path_373" data-name="Path 373" d="M223.847,304.316A12.8,12.8,0,0,0,214.268,300H203.307L196,309.256l7.307,9.256a23.935,23.935,0,0,0,20.759-12.081l.646-1.136Z" transform="translate(-166.41 -258.177)" fill="#2cafe0"/>
  <path id="Path_374" data-name="Path 374" d="M90.685,300a12.8,12.8,0,0,0-9.578,4.316l-.866.979.646,1.136a23.935,23.935,0,0,0,20.759,12.081V300Z" transform="translate(-64.748 -258.177)" fill="#58d2ff"/>
</svg>
