<?xml version="1.0" standalone="no"?><svg xmlns="http://www.w3.org/2000/svg" viewBox="0 0 1440 320">
<path fill="#105FFB" fill-opacity="1" d="M0,256L40,240C80,224,160,192,240,186.7C320,181,400,203,480,186.7C560,171,640,117,720,96C800,75,880,85,960,101.3C1040,117,1120,139,1200,128C1280,117,1360,75,1400,53.3L1440,32L1440,320L1400,320C1360,320,1280,320,1200,320C1120,320,1040,320,960,320C880,320,800,320,720,320C640,320,560,320,480,320C400,320,320,320,240,320C160,320,80,320,40,320L0,320Z">
</path>
</svg>